<?xml version="1.0" encoding="UTF-8"?>
<svg xmlns="http://www.w3.org/2000/svg" viewBox="0 0 784 236" width="784" height="236" font-family="system-ui, sans-serif" font-size="12"><text fill="#1a1a1a" font-size="15" font-weight="600" x="16" y="24">Schedule &#8212; device view</text><text fill="#666666" x="16" y="40">makespan 8 second</text><defs><marker id="ah" markerWidth="8" markerHeight="8" refX="7" refY="3" orient="auto"><path d="M0,0 L7,3 L0,6 Z" fill="#9333ea"/></marker></defs><g transform="translate(0,48)"><line stroke="#b3b3b3" stroke-width="1" x1="200.0" y1="34.0" x2="200.0" y2="160.0"/><text fill="#666666" x="200.0" y="28.0" text-anchor="middle">0</text><line stroke="#b3b3b3" stroke-width="1" x1="270.0" y1="34.0" x2="270.0" y2="160.0"/><text fill="#666666" x="270.0" y="28.0" text-anchor="middle">1</text><line stroke="#b3b3b3" stroke-width="1" x1="340.0" y1="34.0" x2="340.0" y2="160.0"/><text fill="#666666" x="340.0" y="28.0" text-anchor="middle">2</text><line stroke="#b3b3b3" stroke-width="1" x1="410.0" y1="34.0" x2="410.0" y2="160.0"/><text fill="#666666" x="410.0" y="28.0" text-anchor="middle">3</text><line stroke="#b3b3b3" stroke-width="1" x1="480.0" y1="34.0" x2="480.0" y2="160.0"/><text fill="#666666" x="480.0" y="28.0" text-anchor="middle">4</text><line stroke="#b3b3b3" stroke-width="1" x1="550.0" y1="34.0" x2="550.0" y2="160.0"/><text fill="#666666" x="550.0" y="28.0" text-anchor="middle">5</text><line stroke="#b3b3b3" stroke-width="1" x1="620.0" y1="34.0" x2="620.0" y2="160.0"/><text fill="#666666" x="620.0" y="28.0" text-anchor="middle">6</text><line stroke="#b3b3b3" stroke-width="1" x1="690.0" y1="34.0" x2="690.0" y2="160.0"/><text fill="#666666" x="690.0" y="28.0" text-anchor="middle">7</text><line stroke="#b3b3b3" stroke-width="1" x1="760.0" y1="34.0" x2="760.0" y2="160.0"/><text fill="#666666" x="760.0" y="28.0" text-anchor="middle">8</text><text fill="#666666" x="200.0" y="180.0">time (second)</text><line stroke="#d9d9d9" stroke-width="1" x1="0" y1="70.0" x2="784.0" y2="70.0"/><text fill="#1a1a1a" x="190.0" y="59.0" text-anchor="end">loader</text><line stroke="#d9d9d9" stroke-width="1" x1="0" y1="100.0" x2="784.0" y2="100.0"/><text fill="#1a1a1a" x="190.0" y="89.0" text-anchor="end">reader</text><line stroke="#d9d9d9" stroke-width="1" x1="0" y1="130.0" x2="784.0" y2="130.0"/><text fill="#1a1a1a" x="190.0" y="119.0" text-anchor="end">sealer</text><line stroke="#d9d9d9" stroke-width="1" x1="0" y1="160.0" x2="784.0" y2="160.0"/><text fill="#1a1a1a" x="190.0" y="149.0" text-anchor="end">arm (transporter)</text><line stroke="#dc2626" stroke-width="1.5" stroke-dasharray="4 3" x1="760.0" y1="34.0" x2="760.0" y2="160.0"/><text fill="#dc2626" x="763.0" y="28.0">now=8</text><rect fill="#3b82f6" x="200.0" y="45.0" width="70.0" height="20" rx="3"/><text fill="#ffffff" x="204.0" y="59.0">Load</text><rect fill="#f59e0b" x="270.0" y="135.0" width="140.0" height="20" rx="3"/><text fill="#3a2a00" x="274.0" y="149.0">&gt; Read</text><rect fill="#f59e0b" fill-opacity="0.2" x="270.0" y="45.0" width="140.0" height="20" rx="3"/><rect fill="#f59e0b" fill-opacity="0.2" x="270.0" y="75.0" width="140.0" height="20" rx="3"/><rect fill="#3b82f6" x="410.0" y="75.0" width="140.0" height="20" rx="3"/><text fill="#ffffff" x="414.0" y="89.0">Read</text><rect fill="#f59e0b" x="550.0" y="135.0" width="70.0" height="20" rx="3"/><text fill="#3a2a00" x="554.0" y="149.0">&gt; Store</text><rect fill="#f59e0b" fill-opacity="0.2" x="550.0" y="75.0" width="70.0" height="20" rx="3"/><rect fill="#f59e0b" fill-opacity="0.2" x="550.0" y="105.0" width="70.0" height="20" rx="3"/><rect fill="#3b82f6" x="620.0" y="105.0" width="140.0" height="20" rx="3"/><text fill="#ffffff" x="624.0" y="119.0">Store</text></g></svg>