<?xml version="1.0" encoding="UTF-8"?>
<svg xmlns="http://www.w3.org/2000/svg" viewBox="0 0 784 296" width="784" height="296" font-family="system-ui, sans-serif" font-size="12"><text fill="#1a1a1a" font-size="15" font-weight="600" x="16" y="24">Schedule &#8212; device view</text><text fill="#666666" x="16" y="40">makespan 13 second</text><defs><marker id="ah" markerWidth="8" markerHeight="8" refX="7" refY="3" orient="auto"><path d="M0,0 L7,3 L0,6 Z" fill="#9333ea"/></marker></defs><g transform="translate(0,48)"><line stroke="#b3b3b3" stroke-width="1" x1="200.0" y1="34.0" x2="200.0" y2="220.0"/><text fill="#666666" x="200.0" y="28.0" text-anchor="middle">0</text><line stroke="#b3b3b3" stroke-width="1" x1="286.2" y1="34.0" x2="286.2" y2="220.0"/><text fill="#666666" x="286.2" y="28.0" text-anchor="middle">2</text><line stroke="#b3b3b3" stroke-width="1" x1="372.3" y1="34.0" x2="372.3" y2="220.0"/><text fill="#666666" x="372.3" y="28.0" text-anchor="middle">4</text><line stroke="#b3b3b3" stroke-width="1" x1="458.5" y1="34.0" x2="458.5" y2="220.0"/><text fill="#666666" x="458.5" y="28.0" text-anchor="middle">6</text><line stroke="#b3b3b3" stroke-width="1" x1="544.6" y1="34.0" x2="544.6" y2="220.0"/><text fill="#666666" x="544.6" y="28.0" text-anchor="middle">8</text><line stroke="#b3b3b3" stroke-width="1" x1="630.8" y1="34.0" x2="630.8" y2="220.0"/><text fill="#666666" x="630.8" y="28.0" text-anchor="middle">10</text><line stroke="#b3b3b3" stroke-width="1" x1="716.9" y1="34.0" x2="716.9" y2="220.0"/><text fill="#666666" x="716.9" y="28.0" text-anchor="middle">12</text><text fill="#666666" x="200.0" y="240.0">time (second)</text><line stroke="#d9d9d9" stroke-width="1" x1="0" y1="70.0" x2="784.0" y2="70.0"/><text fill="#1a1a1a" x="190.0" y="59.0" text-anchor="end">dispenser</text><line stroke="#d9d9d9" stroke-width="1" x1="0" y1="100.0" x2="784.0" y2="100.0"/><text fill="#1a1a1a" x="190.0" y="89.0" text-anchor="end">loader</text><line stroke="#d9d9d9" stroke-width="1" x1="0" y1="130.0" x2="784.0" y2="130.0"/><text fill="#1a1a1a" x="190.0" y="119.0" text-anchor="end">rack</text><line stroke="#d9d9d9" stroke-width="1" x1="0" y1="160.0" x2="784.0" y2="160.0"/><text fill="#1a1a1a" x="190.0" y="149.0" text-anchor="end">reader</text><line stroke="#d9d9d9" stroke-width="1" x1="0" y1="190.0" x2="784.0" y2="190.0"/><text fill="#1a1a1a" x="190.0" y="179.0" text-anchor="end">sealer</text><line stroke="#d9d9d9" stroke-width="1" x1="0" y1="220.0" x2="784.0" y2="220.0"/><text fill="#1a1a1a" x="190.0" y="209.0" text-anchor="end">arm (transporter)</text><line stroke="#dc2626" stroke-width="1.5" stroke-dasharray="4 3" x1="760.0" y1="34.0" x2="760.0" y2="220.0"/><text fill="#dc2626" x="763.0" y="28.0">now=13</text><rect fill="#f59e0b" x="200.0" y="195.0" width="43.1" height="20" rx="3"/><text fill="#3a2a00" x="204.0" y="209.0">&gt; Di…</text><rect fill="#f59e0b" fill-opacity="0.2" x="200.0" y="105.0" width="43.1" height="20" rx="3"/><rect fill="#f59e0b" fill-opacity="0.2" x="200.0" y="45.0" width="43.1" height="20" rx="3"/><rect fill="#3b82f6" x="200.0" y="75.0" width="43.1" height="20" rx="3"/><text fill="#ffffff" x="204.0" y="89.0">Load</text><rect fill="#f59e0b" x="243.1" y="195.0" width="86.2" height="20" rx="3"/><text fill="#3a2a00" x="247.1" y="209.0">&gt; Dispense</text><rect fill="#f59e0b" fill-opacity="0.2" x="243.1" y="75.0" width="86.2" height="20" rx="3"/><rect fill="#f59e0b" fill-opacity="0.2" x="243.1" y="45.0" width="86.2" height="20" rx="3"/><rect fill="#3b82f6" x="329.2" y="45.0" width="86.2" height="20" rx="3"/><text fill="#ffffff" x="333.2" y="59.0">Dispense</text><rect fill="#f59e0b" x="415.4" y="195.0" width="86.2" height="20" rx="3"/><text fill="#3a2a00" x="419.4" y="209.0">&gt; Read</text><rect fill="#f59e0b" fill-opacity="0.2" x="415.4" y="45.0" width="86.2" height="20" rx="3"/><rect fill="#f59e0b" fill-opacity="0.2" x="415.4" y="135.0" width="86.2" height="20" rx="3"/><rect fill="#f59e0b" x="501.5" y="195.0" width="86.2" height="20" rx="3"/><text fill="#3a2a00" x="505.5" y="209.0">&gt; transport</text><rect fill="#f59e0b" fill-opacity="0.2" x="501.5" y="45.0" width="86.2" height="20" rx="3"/><rect fill="#f59e0b" fill-opacity="0.2" x="501.5" y="105.0" width="86.2" height="20" rx="3"/><rect fill="#3b82f6" x="501.5" y="135.0" width="86.2" height="20" rx="3"/><text fill="#ffffff" x="505.5" y="149.0">Read</text><rect fill="#f59e0b" x="587.7" y="195.0" width="86.2" height="20" rx="3"/><text fill="#3a2a00" x="591.7" y="209.0">&gt; Store</text><rect fill="#f59e0b" fill-opacity="0.2" x="587.7" y="135.0" width="86.2" height="20" rx="3"/><rect fill="#f59e0b" fill-opacity="0.2" x="587.7" y="165.0" width="86.2" height="20" rx="3"/><rect fill="#3b82f6" x="673.8" y="165.0" width="86.2" height="20" rx="3"/><text fill="#ffffff" x="677.8" y="179.0">Store</text></g></svg>